<svg width="93" height="28" viewBox="0 0 93 28" fill="none" xmlns="http://www.w3.org/2000/svg">
<path d="M7.96795 22.336C5.88795 22.336 4.23995 21.76 3.02395 20.608C1.80795 19.44 1.19995 17.776 1.19995 15.616V11.584C1.19995 9.42401 1.80795 7.76801 3.02395 6.61601C4.23995 5.44801 5.88795 4.86401 7.96795 4.86401C10.032 4.86401 11.624 5.43201 12.744 6.56801C13.88 7.68801 14.448 9.23201 14.448 11.2V11.344H11.328V11.104C11.328 10.112 11.048 9.29601 10.488 8.65601C9.94395 8.01601 9.10395 7.69601 7.96795 7.69601C6.84795 7.69601 5.96795 8.04001 5.32795 8.72801C4.68795 9.41601 4.36795 10.352 4.36795 11.536V15.664C4.36795 16.832 4.68795 17.768 5.32795 18.472C5.96795 19.16 6.84795 19.504 7.96795 19.504C9.10395 19.504 9.94395 19.184 10.488 18.544C11.048 17.888 11.328 17.072 11.328 16.096V15.664H14.448V16C14.448 17.968 13.88 19.52 12.744 20.656C11.624 21.776 10.032 22.336 7.96795 22.336ZM22.3612 22.336C21.0653 22.336 19.9213 22.104 18.9293 21.64C17.9373 21.176 17.1613 20.512 16.6013 19.648C16.0413 18.784 15.7613 17.744 15.7613 16.528V15.856H18.8813V16.528C18.8813 17.536 19.1933 18.296 19.8173 18.808C20.4413 19.304 21.2892 19.552 22.3612 19.552C23.4492 19.552 24.2572 19.336 24.7852 18.904C25.3293 18.472 25.6012 17.92 25.6012 17.248C25.6012 16.784 25.4653 16.408 25.1933 16.12C24.9373 15.832 24.5532 15.6 24.0413 15.424C23.5452 15.232 22.9373 15.056 22.2173 14.896L21.6653 14.776C20.5133 14.52 19.5213 14.2 18.6893 13.816C17.8733 13.416 17.2413 12.896 16.7933 12.256C16.3613 11.616 16.1453 10.784 16.1453 9.76001C16.1453 8.73601 16.3853 7.86401 16.8653 7.14401C17.3612 6.40801 18.0493 5.84801 18.9293 5.46401C19.8253 5.06401 20.8732 4.86401 22.0732 4.86401C23.2733 4.86401 24.3373 5.07201 25.2653 5.48801C26.2093 5.88801 26.9453 6.49601 27.4733 7.31201C28.0173 8.11201 28.2893 9.12001 28.2893 10.336V11.056H25.1693V10.336C25.1693 9.69601 25.0413 9.18401 24.7852 8.80001C24.5452 8.40001 24.1933 8.11201 23.7292 7.93601C23.2652 7.74401 22.7132 7.64801 22.0732 7.64801C21.1133 7.64801 20.4013 7.83201 19.9373 8.20001C19.4893 8.55201 19.2653 9.04001 19.2653 9.66401C19.2653 10.08 19.3692 10.432 19.5772 10.72C19.8013 11.008 20.1293 11.248 20.5613 11.44C20.9932 11.632 21.5452 11.8 22.2173 11.944L22.7693 12.064C23.9693 12.32 25.0093 12.648 25.8892 13.048C26.7852 13.448 27.4813 13.976 27.9773 14.632C28.4733 15.288 28.7213 16.128 28.7213 17.152C28.7213 18.176 28.4573 19.08 27.9293 19.864C27.4173 20.632 26.6812 21.24 25.7213 21.688C24.7773 22.12 23.6572 22.336 22.3612 22.336ZM30.584 22V5.20001H41.3839V8.08001H33.7519V12.088H40.712V14.968H33.7519V19.12H41.528V22H30.584Z" fill="#000000"/>
<path d="M89 0H49C46.7909 0 45 1.79086 45 4V24C45 26.2091 46.7909 28 49 28H89C91.2091 28 93 26.2091 93 24V4C93 1.79086 91.2091 0 89 0Z" fill="#C3CBEF"/>
<path d="M48.6801 22V5.19995H51.7041V11.56H52.1361C52.2641 11.304 52.4641 11.048 52.7361 10.792C53.0081 10.536 53.3681 10.328 53.8161 10.168C54.2801 9.99195 54.8641 9.90395 55.5681 9.90395C56.4961 9.90395 57.3041 10.12 57.9921 10.552C58.6961 10.968 59.2401 11.552 59.6241 12.304C60.0081 13.04 60.2001 13.904 60.2001 14.896V22H57.1761V15.136C57.1761 14.24 56.9521 13.568 56.5041 13.12C56.0721 12.672 55.4481 12.448 54.6321 12.448C53.7041 12.448 52.9841 12.76 52.4721 13.384C51.9601 13.992 51.7041 14.848 51.7041 15.952V22H48.6801ZM67.3176 22.192C66.3897 22.192 65.5737 21.984 64.8697 21.568C64.1817 21.136 63.6457 20.544 63.2617 19.792C62.8777 19.04 62.6857 18.176 62.6857 17.2V10.096H65.7097V16.96C65.7097 17.856 65.9257 18.528 66.3577 18.976C66.8057 19.424 67.4377 19.648 68.2537 19.648C69.1817 19.648 69.9017 19.344 70.4137 18.736C70.9256 18.112 71.1817 17.248 71.1817 16.144V10.096H74.2057V22H71.2297V20.44H70.7977C70.6057 20.84 70.2457 21.232 69.7177 21.616C69.1897 22 68.3897 22.192 67.3176 22.192ZM84.2227 22.336C83.1507 22.336 82.3267 22.152 81.7507 21.784C81.1747 21.416 80.7507 21.008 80.4787 20.56H80.0467V22H77.0707V5.19995H80.0947V11.464H80.5267C80.7027 11.176 80.9347 10.904 81.2227 10.648C81.5267 10.392 81.9187 10.184 82.3987 10.024C82.8946 9.84795 83.5027 9.75995 84.2227 9.75995C85.1827 9.75995 86.0706 9.99995 86.8867 10.48C87.7027 10.944 88.3587 11.632 88.8547 12.544C89.3507 13.456 89.5987 14.56 89.5987 15.856V16.24C89.5987 17.536 89.3507 18.64 88.8547 19.552C88.3587 20.464 87.7027 21.16 86.8867 21.6399C86.0706 22.104 85.1827 22.336 84.2227 22.336ZM83.3107 19.696C84.2387 19.696 85.0147 19.4 85.6387 18.808C86.2627 18.2 86.5747 17.32 86.5747 16.168V15.928C86.5747 14.776 86.2627 13.904 85.6387 13.312C85.0307 12.704 84.2547 12.4 83.3107 12.4C82.3827 12.4 81.6067 12.704 80.9827 13.312C80.3587 13.904 80.0467 14.776 80.0467 15.928V16.168C80.0467 17.32 80.3587 18.2 80.9827 18.808C81.6067 19.4 82.3827 19.696 83.3107 19.696Z" fill="#05060A"/>
</svg>
