<svg xmlns="http://www.w3.org/2000/svg" width="93" height="28" viewBox="0 0 93 28" fill="none">
  <path d="M7.96795 22.336C5.88795 22.336 4.23995 21.76 3.02395 20.608C1.80795 19.44 1.19995 17.776 1.19995 15.616V11.584C1.19995 9.424 1.80795 7.768 3.02395 6.616C4.23995 5.448 5.88795 4.864 7.96795 4.864C10.032 4.864 11.624 5.432 12.744 6.568C13.88 7.688 14.448 9.232 14.448 11.2V11.344H11.328V11.104C11.328 10.112 11.048 9.296 10.488 8.656C9.94395 8.016 9.10395 7.696 7.96795 7.696C6.84795 7.696 5.96795 8.04 5.32795 8.728C4.68795 9.416 4.36795 10.352 4.36795 11.536V15.664C4.36795 16.832 4.68795 17.768 5.32795 18.472C5.96795 19.16 6.84795 19.504 7.96795 19.504C9.10395 19.504 9.94395 19.184 10.488 18.544C11.048 17.888 11.328 17.072 11.328 16.096V15.664H14.448V16C14.448 17.968 13.88 19.52 12.744 20.656C11.624 21.776 10.032 22.336 7.96795 22.336ZM22.3612 22.336C21.0653 22.336 19.9213 22.104 18.9293 21.64C17.9373 21.176 17.1613 20.512 16.6013 19.648C16.0413 18.784 15.7613 17.744 15.7613 16.528V15.856H18.8813V16.528C18.8813 17.536 19.1933 18.296 19.8173 18.808C20.4413 19.304 21.2892 19.552 22.3612 19.552C23.4492 19.552 24.2572 19.336 24.7852 18.904C25.3293 18.472 25.6012 17.92 25.6012 17.248C25.6012 16.784 25.4653 16.408 25.1933 16.12C24.9373 15.832 24.5532 15.6 24.0413 15.424C23.5452 15.232 22.9373 15.056 22.2173 14.896L21.6653 14.776C20.5133 14.52 19.5213 14.2 18.6893 13.816C17.8733 13.416 17.2413 12.896 16.7933 12.256C16.3613 11.616 16.1453 10.784 16.1453 9.76C16.1453 8.736 16.3853 7.864 16.8653 7.144C17.3612 6.408 18.0493 5.848 18.9293 5.464C19.8253 5.064 20.8732 4.864 22.0732 4.864C23.2733 4.864 24.3373 5.072 25.2653 5.488C26.2093 5.888 26.9453 6.496 27.4733 7.312C28.0173 8.112 28.2893 9.12 28.2893 10.336V11.056H25.1693V10.336C25.1693 9.696 25.0413 9.184 24.7852 8.8C24.5452 8.4 24.1933 8.112 23.7292 7.936C23.2652 7.744 22.7132 7.648 22.0732 7.648C21.1133 7.648 20.4013 7.832 19.9373 8.2C19.4893 8.552 19.2653 9.04 19.2653 9.664C19.2653 10.08 19.3692 10.432 19.5772 10.72C19.8013 11.008 20.1293 11.248 20.5613 11.44C20.9932 11.632 21.5452 11.8 22.2173 11.944L22.7693 12.064C23.9693 12.32 25.0093 12.648 25.8892 13.048C26.7852 13.448 27.4813 13.976 27.9773 14.632C28.4733 15.288 28.7213 16.128 28.7213 17.152C28.7213 18.176 28.4573 19.08 27.9293 19.864C27.4173 20.632 26.6812 21.24 25.7213 21.688C24.7773 22.12 23.6572 22.336 22.3612 22.336ZM30.584 22V5.2H41.3839V8.08H33.7519V12.088H40.712V14.968H33.7519V19.12H41.528V22H30.584Z" fill="#0A0A0F"/>
  <path d="M89 0H49C46.7909 0 45 1.79086 45 4V24C45 26.2091 46.7909 28 49 28H89C91.2091 28 93 26.2091 93 24V4C93 1.79086 91.2091 0 89 0Z" fill="#10183C"/>
  <path d="M48.6799 22V5.2H51.7039V11.56H52.1359C52.2639 11.304 52.4639 11.048 52.7359 10.792C53.0079 10.536 53.3679 10.328 53.8159 10.168C54.2799 9.992 54.8639 9.904 55.5679 9.904C56.4959 9.904 57.3039 10.12 57.9919 10.552C58.6959 10.968 59.2399 11.552 59.6239 12.304C60.0079 13.04 60.1999 13.904 60.1999 14.896V22H57.1759V15.136C57.1759 14.24 56.9519 13.568 56.5039 13.12C56.0719 12.672 55.4479 12.448 54.6319 12.448C53.7039 12.448 52.9839 12.76 52.4719 13.384C51.9599 13.992 51.7039 14.848 51.7039 15.952V22H48.6799ZM67.3175 22.192C66.3895 22.192 65.5735 21.984 64.8695 21.568C64.1815 21.136 63.6455 20.544 63.2615 19.792C62.8775 19.04 62.6855 18.176 62.6855 17.2V10.096H65.7095V16.96C65.7095 17.856 65.9255 18.528 66.3575 18.976C66.8055 19.424 67.4375 19.648 68.2535 19.648C69.1815 19.648 69.9015 19.344 70.4135 18.736C70.9255 18.112 71.1815 17.248 71.1815 16.144V10.096H74.2055V22H71.2295V20.44H70.7975C70.6055 20.84 70.2455 21.232 69.7175 21.616C69.1895 22 68.3895 22.192 67.3175 22.192ZM84.2225 22.336C83.1505 22.336 82.3265 22.152 81.7505 21.784C81.1745 21.416 80.7505 21.008 80.4785 20.56H80.0465V22H77.0705V5.2H80.0945V11.464H80.5265C80.7025 11.176 80.9345 10.904 81.2225 10.648C81.5265 10.392 81.9185 10.184 82.3985 10.024C82.8945 9.848 83.5025 9.76 84.2225 9.76C85.1825 9.76 86.0705 10 86.8865 10.48C87.7025 10.944 88.3585 11.632 88.8545 12.544C89.3505 13.456 89.5985 14.56 89.5985 15.856V16.24C89.5985 17.536 89.3505 18.64 88.8545 19.552C88.3585 20.464 87.7025 21.16 86.8865 21.64C86.0705 22.104 85.1825 22.336 84.2225 22.336ZM83.3105 19.696C84.2385 19.696 85.0145 19.4 85.6385 18.808C86.2625 18.2 86.5745 17.32 86.5745 16.168V15.928C86.5745 14.776 86.2625 13.904 85.6385 13.312C85.0305 12.704 84.2545 12.4 83.3105 12.4C82.3825 12.4 81.6065 12.704 80.9825 13.312C80.3585 13.904 80.0465 14.776 80.0465 15.928V16.168C80.0465 17.32 80.3585 18.2 80.9825 18.808C81.6065 19.4 82.3825 19.696 83.3105 19.696Z" fill="#F5F6FA"/>
</svg>
